<svg  xmlns="http://www.w3.org/2000/svg" width="43.006" height="37.63" viewBox="0 0 43.006 37.63">
  <path id="Icon_awesome-list-ol" data-name="Icon awesome-list-ol" d="M5.188,33.244l1.47-1.693a1.673,1.673,0,0,0,.426-1.192v-.278a.852.852,0,0,0-.953-.953H1.344a.672.672,0,0,0-.672.672v1.344a.672.672,0,0,0,.672.672H3.262a13.222,13.222,0,0,0-.924,1.034l-.471.588a1.116,1.116,0,0,0-.235,1.25l.088.162a1.022,1.022,0,0,0,1.029.662h.4c.868,0,1.339.2,1.339.764,0,.4-.353.69-1.206.69a3.489,3.489,0,0,1-1.3-.262c-.545-.326-.986-.294-1.31.262l-.47.782A.9.9,0,0,0,.42,39.087a6.031,6.031,0,0,0,3.108.793C6.4,39.88,7.6,37.969,7.6,36.174A3.037,3.037,0,0,0,5.188,33.244ZM41.662,18.377H14.783a1.344,1.344,0,0,0-1.344,1.344v2.688a1.344,1.344,0,0,0,1.344,1.344H41.662a1.344,1.344,0,0,0,1.344-1.344V19.721A1.344,1.344,0,0,0,41.662,18.377Zm0-13.439H14.783a1.344,1.344,0,0,0-1.344,1.344V8.97a1.344,1.344,0,0,0,1.344,1.344H41.662A1.344,1.344,0,0,0,43.006,8.97V6.282A1.344,1.344,0,0,0,41.662,4.938Zm0,26.879H14.783a1.344,1.344,0,0,0-1.344,1.344v2.688a1.344,1.344,0,0,0,1.344,1.344H41.662a1.344,1.344,0,0,0,1.344-1.344V33.16A1.344,1.344,0,0,0,41.662,31.817ZM1.344,13H6.72a.672.672,0,0,0,.672-.672V10.986a.672.672,0,0,0-.672-.672H5.376V2.922A.672.672,0,0,0,4.7,2.25H2.688a.672.672,0,0,0-.6.371L1.416,3.965a.672.672,0,0,0,.6.973h.672v5.376H1.344a.672.672,0,0,0-.672.672v1.344A.672.672,0,0,0,1.344,13ZM1.016,26.441h5.7a.672.672,0,0,0,.672-.672V24.425a.672.672,0,0,0-.672-.672H3.471c.276-.864,4.06-1.569,4.06-4.741,0-2.441-2.1-3.323-3.735-3.323A4.073,4.073,0,0,0,.4,17.264a.83.83,0,0,0,.235,1.291l.721.578c.471.383.924.207,1.354-.2a1.129,1.129,0,0,1,.795-.323.716.716,0,0,1,.779.735C4.284,20.409,0,21.175,0,25.146v.336A.919.919,0,0,0,1.016,26.441Z" transform="translate(0 -2.25)" fill="#fff"/>
</svg>
