<svg xmlns="http://www.w3.org/2000/svg" xmlns:xlink="http://www.w3.org/1999/xlink" width="147.746" height="166.001" viewBox="0 0 147.746 166.001">
  <defs>
    <clipPath id="clip-path">
      <rect id="Rectangle_3" data-name="Rectangle 3" width="145.802" height="83.457" transform="translate(0 0)" fill="none"/>
    </clipPath>
    <clipPath id="clip-path-2">
      <rect id="Rectangle_5" data-name="Rectangle 5" width="145.802" height="82.679" fill="none"/>
    </clipPath>
  </defs>
  <g id="Group_6" data-name="Group 6" transform="translate(-770 270.999)">
    <g id="Group_1" data-name="Group 1" transform="translate(770 -270.999)" clip-path="url(#clip-path)">
      <path id="Path_1" data-name="Path 1" d="M79.519,297.678c-6.215-.207-11.123,4.4-13.226,9.909s-5.1,18.97-3.8,26.411l.58,4.144L59.54,344.1s-5.087,3.188-5.076,7.724,4.118,13.551,14.133,15.353,67.967,4.951,67.967,4.951l6.18-.662s33.219-2.586,38.528-4.789,7.708-4.9,8.261-8.011a26.535,26.535,0,0,0-.221-7.5l-2.428-4.414a8.89,8.89,0,0,0-.433-3.045c-.572-2.365-2.175-4.569-4.478-5.169a52.07,52.07,0,0,0-9.414-1.3c-2.9-.1-8.213-1-20.231-13.721-5.847-6.188-12.82-15.925-14.923-18.328s-6.21-2.2-9.114-1.1-16.125,6.21-26.141,2.7-16.414-8.9-22.629-9.107" transform="translate(-47.111 -257.485)" fill="#fff"/>
      <path id="Path_2" data-name="Path 2" d="M166.085,295.842c14.566,5.738,36.973,7.949,44.308,5.922,10.2-2.818,11.443-10.966,11.443-10.966-.441-3.311-2.428-4.414-2.428-4.414-9.049,8.166-32.884,3.09-64-4.193q-5.42-1.268-10.5-2.171a11.025,11.025,0,0,0,5.844-2.9,16.4,16.4,0,0,0,3.884-7.415l3.919-14.548h-8.4l-3.566,13.277a7.354,7.354,0,0,1-1.766,3.6,3.592,3.592,0,0,1-2.648,1.024c-2.225,0-3.39-1.024-3.39-3.107a8.856,8.856,0,0,1,.282-1.942l3.352-12.448a.939.939,0,0,0,.1-.374l.008-.03h-.007a2.575,2.575,0,0,0-.8-1.657c-1.545-1.766-5.518-5.738-5.518-5.738s7.283,2.428,14.125.662,11.035-3.311,13.9-3.752,5.959,2.648,9.049,7.283a45.681,45.681,0,0,0,3.879,4.655l-2.787,10.341-5.614-11.794h-7.733l-6.638,24.717h8.192l3.319-12.288,5.862,12.288h7.345l4.484-16.7c5.9,5.7,12.756,11.514,16.507,12.923,4.647,1.746,4.62.868,9.994,1.44,8.637.919,8.884,5.8,8.884,5.8s.452-6.745-13.25-6.665c-4.71.027-10.594-3.973-15.008-8.607s-19.642-23.615-20.966-25.16-5.3-1.545-7.724-.883-19.863,6.18-27.367,3.09-8.607-14.345-14.125-16.552-8.166,1.545-13.683,3.311-5.514,2.359-6.18,4.855c-1.766,6.621-8.387,10.594-3.31,11.918-4.43,14.4-2.346,24.988-2.346,24.988.041-15.546,3.222-23.932,4.86-27.225,1.862-1.416,4.529-2.961,7.2-2.839,4.855.221,13.683,9.049,20.084,10.373,2.541.526,4.906.947,6.947,1.278l-3.3,12.262a15.7,15.7,0,0,0-.53,3.99,8.091,8.091,0,0,0,3.031,6.807q-4.136-.5-7.909-.79l-2.431-5.84a11.131,11.131,0,0,0,4.484-2.578,8.22,8.22,0,0,0,2.4-6.109,7.023,7.023,0,0,0-1.942-5.155c-1.66-1.66-4.555-2.648-9.11-2.648h-9.64l-5.895,21.948c-4.931.256-7.665.671-7.665.671-3.531,1.324-3.531,5.959-3.531,5.959,24.008-1.219,59.454,6.368,74.02,12.106m-50.538-33.764h2.931a3.4,3.4,0,0,1,2.436.706,1.756,1.756,0,0,1,.53,1.306,2.319,2.319,0,0,1-.706,1.695,4.85,4.85,0,0,1-3.5,1.13h-3Zm-2.437,10.734h1.624l1.629,4.177q-2.526-.077-4.784-.08l1.106-4.1Z" transform="translate(-79.636 -197.12)" fill="#1a1818"/>
    </g>
    <g id="Group_4" data-name="Group 4" transform="translate(771.944 -187.677)">
      <g id="Group_3" data-name="Group 3" transform="translate(0)" clip-path="url(#clip-path-2)">
        <path id="Path_3" data-name="Path 3" d="M64.072,69.794c-6.215-.207-11.123,4.4-13.226,9.909s-5.1,18.97-3.8,26.411l.58,4.144-3.531,5.959s-5.087,3.188-5.076,7.724,4.118,13.551,14.133,15.353,67.967,4.951,67.967,4.951l6.18-.662s33.219-2.586,38.528-4.789,7.708-4.9,8.261-8.011a26.531,26.531,0,0,0-.221-7.5l-2.428-4.414A8.889,8.889,0,0,0,171,115.82c-.572-2.365-2.175-4.569-4.478-5.169a52.07,52.07,0,0,0-9.414-1.3c-2.9-.1-8.213-1-20.231-13.721C131.033,89.439,124.06,79.7,121.956,77.3s-6.21-2.2-9.114-1.1S96.717,82.407,86.7,78.9,70.288,70,64.072,69.794" transform="translate(-33.75 -113.058)" fill="#fff"/>
        <path id="Path_4" data-name="Path 4" d="M12.293,470.924c-3.531,0-7.283,6.842,0,12.58s12.58,6.842,25.38,7.724,56.72,0,56.72,0c-1.324-.221-32-1.766-47.45-9.931s-26.925-10.373-34.65-10.373" transform="translate(-7.025 -460.041)" fill="#1a1818"/>
        <path id="Path_5" data-name="Path 5" d="M150.637,67.958C165.2,73.7,187.61,75.906,194.945,73.88c10.2-2.818,11.443-10.966,11.443-10.966-.441-3.31-2.428-4.414-2.428-4.414-9.049,8.166-32.884,3.09-64-4.193q-5.42-1.268-10.5-2.171a11.025,11.025,0,0,0,5.844-2.9,16.4,16.4,0,0,0,3.884-7.415l3.919-14.548h-8.4L131.137,40.55a7.354,7.354,0,0,1-1.766,3.6,3.593,3.593,0,0,1-2.648,1.024c-2.225,0-3.39-1.024-3.39-3.107a8.853,8.853,0,0,1,.282-1.942l3.352-12.448a.938.938,0,0,0,.1-.374l.008-.031h-.007a2.575,2.575,0,0,0-.8-1.657c-1.545-1.766-5.518-5.738-5.518-5.738s7.283,2.428,14.125.662,11.035-3.311,13.9-3.752,5.959,2.648,9.049,7.283a45.663,45.663,0,0,0,3.879,4.655l-2.787,10.341-5.614-11.794h-7.733l-6.638,24.718h8.192L150.452,39.7l5.862,12.288h7.345l4.484-16.7c5.9,5.7,12.756,11.514,16.507,12.923,4.647,1.746,4.62.868,9.994,1.44,8.637.918,8.884,5.8,8.884,5.8s.452-6.745-13.25-6.665c-4.71.027-10.594-3.972-15.008-8.607S155.627,16.567,154.3,15.022s-5.3-1.545-7.724-.883-19.863,6.179-27.367,3.09S110.6,2.884,105.087.677,96.921,2.222,91.4,3.987s-5.514,2.359-6.18,4.855c-1.766,6.621-8.387,10.594-3.31,11.918-4.43,14.4-2.346,24.988-2.346,24.988.041-15.546,3.222-23.932,4.86-27.225,1.862-1.416,4.529-2.961,7.2-2.839,4.855.221,13.683,9.049,20.084,10.373,2.541.526,4.906.947,6.947,1.277l-3.3,12.262a15.7,15.7,0,0,0-.53,3.99,8.091,8.091,0,0,0,3.031,6.807q-4.136-.5-7.909-.79l-2.431-5.84A11.128,11.128,0,0,0,112,41.185a8.22,8.22,0,0,0,2.4-6.109,7.023,7.023,0,0,0-1.942-5.155c-1.66-1.659-4.555-2.648-9.11-2.648h-9.64L87.813,49.221c-4.931.256-7.665.672-7.665.672-3.531,1.324-3.531,5.959-3.531,5.959,24.008-1.219,59.454,6.368,74.02,12.106M100.1,34.194h2.931a3.4,3.4,0,0,1,2.436.706,1.756,1.756,0,0,1,.53,1.306,2.318,2.318,0,0,1-.706,1.695,4.85,4.85,0,0,1-3.5,1.13h-3ZM97.662,44.928h1.624l1.629,4.177q-2.526-.077-4.784-.08l1.106-4.1Z" transform="translate(-66.274 -52.693)" fill="#1a1818"/>
        <path id="Path_6" data-name="Path 6" d="M739.72,521.6c-3.09,11.256-28.029,8.828-36.415,9.49s-10.373,3.311-10.373,3.311,26.042-1.1,36.636-3.752S739.72,521.6,739.72,521.6" transform="translate(-599.385 -503.878)" fill="#1a1818"/>
        <path id="Path_7" data-name="Path 7" d="M119.181,401.9h14.7l-1.28,4.727h-9.035l-.468,1.748h8.419l-1.108,4.16h-8.42l-.517,1.871h9.158l-1.256,4.727h-14.82Z" transform="translate(-99.088 -400.334)" fill="#fff"/>
        <path id="Path_8" data-name="Path 8" d="M133.307,402.336l-1.044,3.853h-9.036l-.087.324-.468,1.748-.147.55h8.42l-.875,3.287h-8.416l-.089.321-.517,1.871-.153.553h9.164l-1.024,3.853H115.123l4.393-16.359Zm.571-.437h-14.7l-4.628,17.233h14.82l1.256-4.727h-9.158l.517-1.871h8.42l1.108-4.16H123.1l.468-1.748H132.6Z" transform="translate(-99.088 -400.334)" fill="#1a1818"/>
        <path id="Path_9" data-name="Path 9" d="M260.806,401.9h6.327l.738,9.675,5.958-9.675H280.3l-11.644,17.356h-5.514Z" transform="translate(-225.597 -400.334)" fill="#fff"/>
        <path id="Path_10" data-name="Path 10" d="M279.484,402.336l-11.058,16.482h-4.9l-2.221-16.482h5.422l.708,9.271.1,1.341.705-1.146,5.83-9.467Zm.819-.437h-6.475l-5.957,9.675-.739-9.675h-6.327l2.339,17.356h5.514Z" transform="translate(-225.597 -400.334)" fill="#1a1818"/>
        <path id="Path_11" data-name="Path 11" d="M379.414,401.9h14.7l-1.28,4.727H383.8l-.468,1.748h8.42l-1.108,4.16h-8.42L381.7,414.4h9.158l-1.256,4.727h-14.82Z" transform="translate(-324.189 -400.334)" fill="#fff"/>
        <path id="Path_12" data-name="Path 12" d="M393.539,402.336l-1.043,3.853H383.46l-.087.324-.468,1.748-.147.55h8.42L390.3,412.1h-8.416l-.089.321-.517,1.871-.153.553h9.164l-1.024,3.853H375.355l4.393-16.359Zm.571-.437h-14.7l-4.628,17.233h14.82l1.256-4.727H381.7l.517-1.871h8.42l1.108-4.16h-8.42l.468-1.748h9.035Z" transform="translate(-324.188 -400.334)" fill="#1a1818"/>
        <path id="Path_13" data-name="Path 13" d="M502.141,401.9h5.392l3.914,8.222,2.216-8.222h5.711l-4.628,17.233h-5.121l-4.087-8.567-2.314,8.567h-5.711Z" transform="translate(-430.348 -400.334)" fill="#fff"/>
        <path id="Path_14" data-name="Path 14" d="M518.8,402.336l-4.393,16.359H509.9l-3.968-8.318-.508-1.066-.308,1.14-2.227,8.244h-4.807l4.393-16.359h4.781l3.8,7.973.509,1.068.308-1.143,2.128-7.9Zm.57-.437h-5.711l-2.216,8.222-3.914-8.222H502.14l-4.628,17.233h5.712l2.314-8.567,4.087,8.567h5.121Z" transform="translate(-430.347 -400.334)" fill="#1a1818"/>
        <path id="Path_15" data-name="Path 15" d="M663.793,406.773h-5.071l1.3-4.874h15.9l-1.3,4.874h-5.071l-3.323,12.358H660.47Z" transform="translate(-569.793 -400.334)" fill="#fff"/>
        <path id="Path_16" data-name="Path 16" d="M675.361,402.336l-1.071,4h-5.071l-.087.323L665.9,418.695H661.04l3.176-11.808.148-.55h-5.072l1.071-4Zm.569-.437h-15.9l-1.3,4.874h5.071l-3.324,12.358h5.761l3.323-12.358h5.071Z" transform="translate(-569.793 -400.334)" fill="#1a1818"/>
        <path id="Path_17" data-name="Path 17" d="M761.029,414.141l3.3-3.939a9.056,9.056,0,0,0,5.81,2.437c.763,0,1.255-.271,1.255-.763,0-.542-.32-.714-2.831-1.65-3.225-1.181-4.7-2.314-4.7-4.85a5.252,5.252,0,0,1,1.625-3.816,8.449,8.449,0,0,1,6.13-2.216,11.834,11.834,0,0,1,7.681,2.585L776,405.87a8.23,8.23,0,0,0-4.973-1.92c-.763,0-1.255.2-1.255.689s.394.64,2.757,1.5c2.954,1.108,4.8,2.265,4.8,4.948a5.459,5.459,0,0,1-1.649,4.037,8.51,8.51,0,0,1-6.155,2.142,12.544,12.544,0,0,1-8.493-3.127" transform="translate(-658.289 -398.126)" fill="#fff"/>
        <path id="Path_18" data-name="Path 18" d="M771.615,399.782a11.681,11.681,0,0,1,7.061,2.207l-2.744,3.276a8.47,8.47,0,0,0-4.908-1.754c-1.473,0-1.692.706-1.692,1.126,0,.8.524.994,3.041,1.911,2.929,1.1,4.517,2.147,4.517,4.539a5.027,5.027,0,0,1-1.521,3.728,8.168,8.168,0,0,1-5.846,2.014,12.211,12.211,0,0,1-7.883-2.738l2.746-3.278a9.341,9.341,0,0,0,5.753,2.261c1.248,0,1.692-.62,1.692-1.2,0-.9-.66-1.144-3.118-2.06-3.343-1.225-4.416-2.3-4.416-4.44a4.823,4.823,0,0,1,1.5-3.507,8.008,8.008,0,0,1,5.821-2.088m0-.437a8.449,8.449,0,0,0-6.13,2.216,5.252,5.252,0,0,0-1.625,3.816c0,2.536,1.477,3.668,4.7,4.85,2.511.936,2.831,1.108,2.831,1.65,0,.492-.492.763-1.255.763a9.056,9.056,0,0,1-5.81-2.437l-3.3,3.939a12.545,12.545,0,0,0,8.493,3.127,8.51,8.51,0,0,0,6.155-2.142,5.459,5.459,0,0,0,1.649-4.037c0-2.684-1.846-3.841-4.8-4.948-2.363-.862-2.757-1.009-2.757-1.5s.492-.689,1.255-.689a8.23,8.23,0,0,1,4.973,1.92l3.3-3.939a11.832,11.832,0,0,0-7.681-2.585" transform="translate(-658.289 -398.125)" fill="#1a1818"/>
      </g>
    </g>
  </g>
</svg>

