<svg id="logo" xmlns="http://www.w3.org/2000/svg" xmlns:xlink="http://www.w3.org/1999/xlink" width="1095" height="1229.623" viewBox="0 0 1095 1229.623">
  <defs>
    <clipPath id="clip-path">
      <rect id="Rectangle_3" data-name="Rectangle 3" width="1080" height="618.191" transform="translate(0 0.001)" fill="none"/>
    </clipPath>
    <clipPath id="clip-path-2">
      <rect id="Rectangle_5" data-name="Rectangle 5" width="1080" height="612.432" transform="translate(0 390.308)" fill="none"/>
    </clipPath>
  </defs>
  <g id="Group_5" data-name="Group 5" transform="translate(-770 270.999)">
    <g id="top_part" data-name="Group 1" transform="translate(770 -271)" clip-path="url(#clip-path)">
      <path id="Path_1" data-name="Path 1" d="M240.058,297.721c-46.038-1.533-82.39,32.593-97.97,73.4s-37.782,140.517-28.164,195.636l4.3,30.7-26.157,44.14s-37.682,23.612-37.6,57.217,30.5,100.374,104.687,113.728S662.6,849.209,662.6,849.209l45.775-4.9s246.066-19.156,285.386-35.477,57.092-36.332,61.189-59.34-1.635-55.583-1.635-55.583l-17.983-32.7s1.03-5.038-3.207-22.557-16.108-33.841-33.171-38.292-48.222-8.9-69.736-9.645-60.835-7.419-149.86-101.637c-43.309-45.836-94.961-117.959-110.54-135.764s-46-16.322-67.511-8.161-119.443,46-193.631,20.031S286.1,299.254,240.058,297.721" fill="#fff"/>
      <path id="Path_2" data-name="Path 2" d="M640.354,731.263c107.9,42.5,273.87,58.878,328.206,43.869,75.559-20.871,84.76-81.228,84.76-81.228-3.269-24.522-17.983-32.7-17.983-32.7-67.026,60.487-243.583,22.887-474.088-31.061q-40.145-9.4-77.76-16.082c17.044-3.325,31.882-10.073,43.285-21.476,12.817-12.817,22.233-31.125,28.772-54.927L584.579,429.9H522.328l-26.417,98.346c-3.924,14.386-7.585,21.186-13.078,26.679-4.969,4.97-11.508,7.585-19.617,7.585-16.478,0-25.109-7.585-25.109-23.017a65.593,65.593,0,0,1,2.092-14.386L465.025,432.9a6.951,6.951,0,0,0,.746-2.773l.061-.225h-.049c.119-3.251-1.647-7.425-5.891-12.276-11.444-13.078-40.87-42.5-40.87-42.5s53.948,17.983,104.627,4.9S605.388,355.5,626.64,352.233s44.14,19.617,67.027,53.948c5.113,7.67,15.357,19.9,28.73,34.482l-20.641,76.6L660.169,429.9H602.888L553.715,612.99H614.4l24.587-91.021L682.4,612.99h54.405L770.024,489.3c43.719,42.225,94.485,85.286,122.273,95.727,34.419,12.933,34.225,6.43,74.029,10.663,63.976,6.8,65.8,42.955,65.8,42.955s3.351-49.962-98.149-49.373c-34.887.2-78.47-29.426-111.166-63.757S677.319,350.6,667.51,339.155s-39.235-11.444-57.217-6.54S463.162,378.389,407.579,355.5,343.822,249.241,302.952,232.893,242.465,244.337,201.6,257.415s-40.843,17.477-45.774,35.965C142.743,342.424,93.7,371.85,131.3,381.659c-32.812,106.7-17.376,185.094-17.376,185.094.3-115.153,23.865-177.274,36-201.661,13.795-10.492,33.544-21.931,53.306-21.033C239.2,345.694,304.587,411.085,352,420.894c18.82,3.894,36.343,7.012,51.462,9.463l-24.464,90.827a116.3,116.3,0,0,0-3.923,29.556c0,21.977,7.6,39.128,22.449,50.421q-30.635-3.687-58.582-5.853l-18.009-43.26c14.647-4.97,25.109-10.986,33.218-19.094,12.554-12.555,17.785-27.725,17.785-45.25,0-14.647-4.184-27.986-14.385-38.187-12.293-12.293-33.741-19.617-67.482-19.617h-71.4L175,592.478c-36.522,1.9-56.775,4.973-56.775,4.973C92.065,607.26,92.065,641.59,92.065,641.59c177.838-9.033,440.393,47.168,548.289,89.673M266,481.166h21.709c8.631,0,14.647,1.831,18.047,5.231a13.009,13.009,0,0,1,3.924,9.677,17.175,17.175,0,0,1-5.232,12.555c-4.969,4.97-13.6,8.37-25.894,8.37H256.324Zm-18.048,79.513h12.032l12.068,30.943q-18.711-.569-35.433-.594l8.195-30.349Z" fill="#1a1818"/>
    </g>
    <g id="Group_4" data-name="Group 4" transform="translate(2287 -44.116)">
      <!-- <g id="bot_part" data-name="Group 3" transform="translate(-1502)" clip-path="url(#clip-path-2)">
        <path id="Path_3" data-name="Path 3" d="M224.611,69.837c-46.038-1.533-82.39,32.593-97.97,73.4S88.859,283.75,98.477,338.87l4.3,30.7-26.157,44.14s-37.682,23.612-37.6,57.217S69.517,571.3,143.7,584.652s503.454,36.673,503.454,36.673l45.775-4.905S939,597.264,978.319,580.943s57.092-36.332,61.189-59.34-1.635-55.583-1.635-55.583l-17.983-32.7s1.03-5.038-3.207-22.557-16.108-33.841-33.171-38.292-48.222-8.9-69.736-9.645-60.835-7.419-149.86-101.637c-43.309-45.836-94.961-117.959-110.54-135.764s-46-16.322-67.511-8.161-119.443,46-193.631,20.031S270.649,71.37,224.611,69.837" fill="#fff"/>
        <path id="Path_4" data-name="Path 4" d="M39.017,470.924c-26.157,0-53.948,50.678,0,93.183s93.183,50.678,188,57.217,420.14,0,420.14,0c-9.808-1.634-237.044-13.078-351.479-73.565S96.235,470.924,39.017,470.924" fill="#1a1818"/>
        <path id="Path_5" data-name="Path 5" d="M624.906,503.379c107.9,42.5,273.87,58.878,328.206,43.869,75.559-20.871,84.76-81.229,84.76-81.229-3.27-24.521-17.983-32.694-17.983-32.694-67.026,60.486-243.583,22.886-474.088-31.062q-40.145-9.395-77.76-16.081c17.044-3.325,31.882-10.073,43.285-21.476,12.817-12.818,22.233-31.125,28.772-54.927l29.033-107.763H506.88l-26.417,98.346c-3.924,14.386-7.585,21.187-13.078,26.68-4.969,4.969-11.508,7.585-19.617,7.585-16.478,0-25.109-7.585-25.109-23.018a65.577,65.577,0,0,1,2.092-14.385l24.826-92.209a6.951,6.951,0,0,0,.746-2.773l.061-.226h-.049c.119-3.25-1.647-7.425-5.891-12.276-11.444-13.078-40.87-42.5-40.87-42.5s53.948,17.982,104.627,4.9,81.739-24.523,102.991-27.792,44.14,19.617,67.027,53.948c5.113,7.67,15.357,19.906,28.73,34.482l-20.641,76.6-41.587-87.361H587.44L538.267,385.107h60.681l24.587-91.021,43.418,91.021h54.4l33.218-123.685c43.719,42.224,94.485,85.286,122.273,95.726,34.419,12.933,34.225,6.43,74.029,10.664,63.976,6.8,65.8,42.954,65.8,42.954s3.351-49.961-98.149-49.373c-34.887.2-78.47-29.425-111.166-63.757s-145.5-174.922-155.3-186.365-39.235-11.443-57.217-6.539-147.131,45.773-202.714,22.886S328.374,21.357,287.5,5.009,227.017,16.453,186.147,29.531,145.3,47.008,140.373,65.5c-13.078,49.044-62.122,78.47-24.521,88.28C83.04,260.474,98.476,338.87,98.476,338.87c.3-115.154,23.865-177.274,36-201.662,13.795-10.492,33.544-21.931,53.306-21.033,35.966,1.635,101.357,67.026,148.766,76.835,18.82,3.894,36.343,7.013,51.462,9.462L363.546,293.3a116.309,116.309,0,0,0-3.923,29.557c0,21.976,7.6,39.127,22.449,50.421q-30.635-3.687-58.582-5.854l-18.009-43.26c14.647-4.969,25.109-10.985,33.218-19.094,12.554-12.554,17.785-27.724,17.785-45.25,0-14.646-4.184-27.986-14.385-38.187-12.293-12.292-33.741-19.617-67.482-19.617h-71.4L159.548,364.594c-36.522,1.9-56.775,4.974-56.775,4.974-26.156,9.809-26.156,44.138-26.156,44.138,177.838-9.032,440.393,47.169,548.289,89.673m-374.352-250.1h21.709c8.631,0,14.647,1.832,18.047,5.231a13.011,13.011,0,0,1,3.924,9.677A17.172,17.172,0,0,1,289,280.745c-4.969,4.971-13.6,8.37-25.894,8.37H240.876ZM232.506,332.8h12.032l12.068,30.944q-18.711-.57-35.433-.594l8.195-30.35Z" fill="#1a1818"/>
        <path id="Path_6" data-name="Path 6" d="M1039.507,521.6c-22.887,83.374-207.618,65.392-269.74,70.3s-76.835,24.522-76.835,24.522,192.9-8.174,271.375-27.792,75.2-67.026,75.2-67.026" fill="#1a1818"/>
        <path id="Path_7" data-name="Path 7" d="M148.835,401.9H257.7l-9.483,35.012H181.294l-3.463,12.947H240.2l-8.205,30.818H169.623l-3.829,13.859h67.837l-9.3,35.012H114.553Z" fill="#fff"/>
        <path id="Path_8" data-name="Path 8" d="M253.473,405.136l-7.73,28.538H178.81l-.642,2.4L174.7,449.021l-1.089,4.073h62.369L229.5,477.439H167.16l-.656,2.375-3.829,13.859-1.133,4.1h67.881l-7.582,28.538H118.774l32.544-121.174Zm4.23-3.237H148.836L114.553,529.547H224.33l9.3-35.012H165.795l3.829-13.859H231.99l8.206-30.818H177.831l3.463-12.947H248.22Z" fill="#1a1818"/>
        <path id="Path_9" data-name="Path 9" d="M260.806,401.9h46.867l5.47,71.665,44.13-71.665h47.958l-86.253,128.56H278.131Z" fill="#fff"/>
        <path id="Path_10" data-name="Path 10" d="M399.161,405.136l-81.91,122.086h-36.29L264.508,405.136h40.165l5.242,68.674.759,9.937,5.225-8.486,43.182-70.125Zm6.07-3.237H357.272l-44.129,71.665L307.672,401.9H260.806l17.325,128.56h40.846Z" fill="#1a1818"/>
        <path id="Path_11" data-name="Path 11" d="M409.068,401.9H517.933l-9.481,35.012H441.527l-3.465,12.947h62.366l-8.2,30.818H429.856l-3.829,13.859h67.837l-9.3,35.012H374.786Z" fill="#fff"/>
        <path id="Path_12" data-name="Path 12" d="M513.7,405.136l-7.728,28.538H439.042l-.642,2.4-3.465,12.947-1.091,4.073h62.372l-6.482,24.345H427.392l-.656,2.375-3.829,13.859-1.133,4.1h67.881l-7.582,28.538H379.006L411.55,405.136Zm4.23-3.237H409.068L374.785,529.547H484.562l9.3-35.012H426.027l3.829-13.859h62.366l8.206-30.818H438.061l3.465-12.947h66.926Z" fill="#1a1818"/>
        <path id="Path_13" data-name="Path 13" d="M531.8,401.9h39.937L600.726,462.8,617.137,401.9h42.306L625.161,529.547h-37.93L556.96,466.088l-17.141,63.459H497.513Z" fill="#fff"/>
        <path id="Path_14" data-name="Path 14" d="M655.222,405.136,622.678,526.31h-33.4l-29.392-61.616-3.765-7.894-2.281,8.444L537.34,526.31H501.733l32.544-121.174h35.411L597.8,464.2l3.767,7.914,2.281-8.463,15.766-58.511Zm4.221-3.237H617.137L600.725,462.8,571.732,401.9H531.795L497.512,529.547h42.307l17.141-63.459,30.271,63.459h37.93Z" fill="#1a1818"/>
        <path id="Path_15" data-name="Path 15" d="M696.287,438H658.722l9.665-36.106h117.8L776.523,438H738.957L714.34,529.546H671.668Z" fill="#fff"/>
        <path id="Path_16" data-name="Path 16" d="M781.971,405.136l-7.933,29.632H736.476l-.645,2.4L711.859,526.31H675.891l23.522-87.465,1.1-4.077H662.939l7.932-29.632Zm4.217-3.237h-117.8l-9.665,36.106h37.565l-24.619,91.542H714.34l24.617-91.542h37.566Z" fill="#1a1818"/>
        <path id="Path_17" data-name="Path 17" d="M761.029,508.94l24.435-29.176c14.588,12.4,29.36,18.052,43.036,18.052,5.652,0,9.3-2.005,9.3-5.651,0-4.012-2.369-5.289-20.97-12.22C792.94,471.194,782,462.8,782,444.022c0-10.941,4.195-20.423,12.035-28.264,10.213-10.212,25.713-16.412,45.407-16.412,22.794,0,43.036,7.294,56.894,19.146L871.9,447.669c-9.665-7.841-23.16-14.224-36.836-14.224-5.652,0-9.3,1.46-9.3,5.107s2.917,4.741,20.424,11.124c21.882,8.2,35.558,16.776,35.558,36.652,0,11.854-4.011,21.7-12.216,29.906-9.666,9.666-25.165,15.866-45.59,15.866-25.53,0-47.412-9.118-62.912-23.16" fill="#fff"/>
        <path id="Path_18" data-name="Path 18" d="M839.441,402.582c19.919,0,38.774,5.927,52.3,16.351L871.42,443.2c-11.187-8.288-24.278-12.993-36.356-12.993-10.907,0-12.536,5.226-12.536,8.342,0,5.943,3.885,7.36,22.525,14.155,21.7,8.137,33.457,15.9,33.457,33.623,0,11-3.686,20.034-11.268,27.616-9.62,9.62-25,14.918-43.3,14.918-22.152,0-42.758-7.179-58.393-20.278L785.885,484.3c13.768,10.971,28.443,16.751,42.615,16.751,9.243,0,12.536-4.592,12.536-8.889,0-6.654-4.888-8.475-23.093-15.258-24.76-9.071-32.707-17.062-32.707-32.885,0-9.878,3.73-18.617,11.086-25.975,10.118-10.117,25.029-15.464,43.119-15.464m0-3.237c-19.7,0-35.194,6.2-45.407,16.412C786.194,423.6,782,433.081,782,444.021c0,18.783,10.941,27.172,34.83,35.924,18.6,6.93,20.97,8.207,20.97,12.219,0,3.647-3.647,5.652-9.3,5.652-13.676,0-28.448-5.652-43.036-18.053L761.029,508.94c15.5,14.041,37.381,23.16,62.912,23.16,20.425,0,35.924-6.2,45.59-15.866,8.205-8.205,12.216-18.053,12.216-29.9,0-19.878-13.676-28.448-35.558-36.654-17.507-6.382-20.424-7.477-20.424-11.124s3.647-5.106,9.3-5.106c13.676,0,27.171,6.383,36.836,14.224l24.435-29.176c-13.858-11.854-34.1-19.148-56.894-19.148" fill="#1a1818"/>
      </g> -->
    </g>
  </g>
</svg>
