<?xml version="1.0" encoding="UTF-8"?><svg class="svg" id="Layer_1" xmlns="http://www.w3.org/2000/svg" viewBox="0 0 351.94 351.94"><defs></defs><rect class="cls-3" x=".11" y=".11" width="351.72" height="351.72" rx="58.03" ry="58.03"/><path class="cls-1" d="M136.33,67.43h47.59c17.57,2.09,43.13,17.14,52.56,37.15,2.59,5.62,3.96,6.48,6.12,23.11,1.15,8.57,1.73,14.9,5.54,18.43,5.4,4.9,25.42,1.58,29.38,4.68l3.02,2.38,1.8,3.74,.65,3.02-.43,55.01c-.22,37.37-30.6,67.97-68.04,67.97h-78.19c-37.44,0-68.04-30.6-68.04-67.97v-79.42c0-37.44,30.6-68.11,68.04-68.11Z"/><path class="cls-2" d="M137.2,123.08h37.73c7.2,0,13.03,5.83,13.03,12.96h0c0,7.13-5.83,13.03-13.03,13.03h-37.73c-7.2,0-13.03-5.9-13.03-13.03h0c0-7.13,5.83-12.96,13.03-12.96Z"/><path class="cls-2" d="M137.2,200.99h76.68c7.13,0,12.96,5.83,12.96,12.96h0c0,7.06-5.83,12.96-12.96,12.96h-76.68c-7.2,0-13.03-5.9-13.03-12.96h0c0-7.13,5.83-12.96,13.03-12.96Z"/></svg>